<?xml version="1.0" encoding="UTF-8"?>
<svg id="Capa_2" data-name="Capa 2" xmlns="http://www.w3.org/2000/svg" viewBox="0 0 657 657">
  <defs>
    <style>
      .cls-1 {
        fill: none;
      }

      .cls-2 {
        fill: #fff;
      }
    </style>
  </defs>
  <g id="Capa_1-2" data-name="Capa 1">
    <g id="t634r2.tif">
      <g>
        <path d="M101.69,603.84c.67-14.96-.38-30.31,2.37-44.8,5.51-29.05,29.82-49.57,57.07-50.01,25.62-.41,51.25-.13,76.87-.13,84.87,0,169.74-.04,254.61,.02,30.2,.02,55.1,20.43,60.81,51.82,2.54,13.96,1.38,28.71,1.9,43.1H101.69Zm165.71-47.79c-.15-5.08-4.16-9.24-8.83-9.16-4.67,.08-8.55,4.38-8.54,9.47,0,5.34,4.23,9.72,9.09,9.45,4.67-.26,8.43-4.69,8.28-9.76Zm26.27,9.76c4.68-.05,8.58-4.29,8.62-9.39,.05-5.31-4.15-9.74-9.03-9.53-4.67,.21-8.46,4.6-8.35,9.68,.12,5.11,4.08,9.29,8.75,9.24Zm34.79,0c4.68,.01,8.62-4.18,8.73-9.28,.11-5.31-4.04-9.79-8.93-9.64-4.67,.14-8.51,4.49-8.45,9.57,.06,5.11,3.97,9.34,8.65,9.35Zm43.62-9.55c-.04-5.09-3.94-9.33-8.63-9.37-4.67-.04-8.64,4.17-8.74,9.25-.11,5.33,4.01,9.81,8.89,9.67,4.68-.14,8.52-4.46,8.48-9.55Zm34.89,.29c.11-5.07-3.69-9.46-8.37-9.66-4.65-.2-8.75,3.89-9,8.97-.26,5.32,3.74,9.93,8.63,9.95,4.67,.02,8.63-4.17,8.74-9.26Z"/>
        <path d="M158.39,53.16c7.76,5.92,8.24,10.9,1.35,18.77-33.19,37.93-54.81,82.5-62.76,134.14-13.06,84.81,7.08,159.53,59.89,223.67,1.21,1.47,2.48,2.88,3.7,4.35,4.73,5.73,5.15,11,1.21,15.11-3.98,4.16-9.26,3.85-13.69-1.98-10.84-14.3-22.32-28.21-31.66-43.63-23.69-39.14-36.78-82.5-40.02-129.32-.09-1.33-.59-2.62-.89-3.93,0-11.87,0-23.74,0-35.6,.31-1.32,.8-2.62,.89-3.95,3.24-46.82,16.61-89.99,39.89-129.44,10.4-17.63,21.98-34.33,36.64-48.19h5.45Z"/>
        <path d="M581.48,270.35c-1.43,10.9-2.53,21.86-4.35,32.68-9.4,55.76-32.43,103.94-68.57,144.72-4.5,5.08-9.52,5.5-13.38,1.46-3.83-4.02-3.65-9.44,.94-14.62,29.73-33.58,50.85-72.64,60.52-118.1,19.2-90.22,.83-170.57-55.65-240.24-1.32-1.63-2.74-3.16-4.1-4.76-6.37-7.49-5.9-12.53,1.72-18.32,1.82,0,3.63,0,5.45,0,1.51,1.39,3.14,2.65,4.5,4.19,36.14,40.77,59.18,88.94,68.58,144.71,1.82,10.82,2.92,21.79,4.35,32.69v35.6Z"/>
        <path d="M145.25,247.88c.9-49.49,17.77-96.3,51.87-135.59,2.79-3.21,5.71-5.51,9.98-4.53,6.73,1.55,8.51,9.9,3.77,16.37-7.9,10.8-16.54,21.13-23.22,32.78-39.55,69.03-31.28,159.96,19.47,219.67,1.36,1.6,2.77,3.14,4.04,4.81,3.64,4.79,3.53,10.05-.23,13.74-3.59,3.54-8.72,3.21-12.63-1.1-12.99-14.3-23.69-30.44-32.17-48.28-13.92-29.31-20.73-60.53-20.9-97.88Z"/>
        <path d="M511.69,260.04c-.8,46.54-17.73,93.52-51.99,132.95-3.31,3.8-6.87,5.92-11.57,3.61-5.79-2.84-6.25-9.63-1.88-15.89,9.32-13.32,19.72-26.05,27.19-40.54,35.09-68.04,25.02-154.63-23.74-211.92-1.36-1.59-2.8-3.12-4.06-4.8-3.43-4.57-3.32-9.6,.18-13.31,3.51-3.72,9.15-3.92,12.56,.71,9.62,13.07,19.89,25.8,27.9,40.01,17.24,30.6,25.4,65.99,25.4,109.17Z"/>
        <path d="M215,252.47c.6-33.31,10.97-62.43,32.25-86.71,5.34-6.09,13.13-4.84,15.4,2.3,1.53,4.8-.65,8.29-3.53,11.64-12.71,14.76-21.12,32.01-24.58,51.94-5.89,33.98,1.61,64.18,21.98,90.64,.93,1.21,1.95,2.35,2.92,3.52,4.57,5.57,4.88,11.07,.85,15.07-3.99,3.97-9,3.19-13.76-2.35-20.77-24.18-30.93-52.98-31.53-86.06Z"/>
        <path d="M442,252.26c-.6,33.57-10.96,62.71-32.22,87.03-5.2,5.94-12.59,5.03-15.21-1.7-1.82-4.69-.01-8.32,2.94-11.74,12.88-14.89,21.44-32.27,24.94-52.42,5.91-34.01-1.64-64.21-22.01-90.69-1.17-1.51-2.47-2.91-3.64-4.41-3.73-4.79-3.8-9.92-.22-13.75,3.64-3.89,8.92-3.63,13.01,1.02,21.35,24.25,31.73,53.38,32.41,86.66Z"/>
        <path d="M336.97,489.61h-16.93v-189.94h16.93v189.94Z"/>
        <path d="M328.62,224.1c14.45,.06,26.17,13.06,26.03,28.88-.14,15.41-12.07,28.14-26.26,28.02-14.5-.12-26.21-13.12-26.02-28.89,.18-15.47,12-28.07,26.26-28.01Z"/>
        <path class="cls-2" d="M267.39,556.05c.15,5.07-3.61,9.5-8.28,9.76-4.87,.27-9.08-4.11-9.09-9.45,0-5.09,3.87-9.38,8.54-9.47,4.67-.08,8.68,4.07,8.83,9.16Z"/>
        <path class="cls-2" d="M293.66,565.82c-4.67,.05-8.63-4.13-8.75-9.24-.12-5.08,3.67-9.48,8.35-9.68,4.88-.21,9.08,4.22,9.03,9.53-.05,5.1-3.94,9.34-8.62,9.39Z"/>
        <path class="cls-2" d="M328.46,565.82c-4.68-.01-8.59-4.23-8.65-9.35-.06-5.08,3.77-9.43,8.45-9.57,4.88-.15,9.03,4.33,8.93,9.64-.1,5.1-4.05,9.29-8.73,9.28Z"/>
        <path class="cls-2" d="M372.08,556.27c.04,5.09-3.8,9.41-8.48,9.55-4.88,.15-9-4.33-8.89-9.67,.1-5.09,4.07-9.29,8.74-9.25,4.69,.04,8.6,4.28,8.63,9.37Z"/>
        <path class="cls-2" d="M406.97,556.55c-.11,5.09-4.07,9.28-8.74,9.26-4.89-.02-8.89-4.64-8.63-9.95,.25-5.08,4.35-9.17,9-8.97,4.68,.2,8.48,4.58,8.37,9.66Z"/>
      </g>
    </g>
    <rect class="cls-1" width="657" height="657"/>
  </g>
</svg>