<?xml version="1.0" encoding="UTF-8"?>
<svg id="Capa_2" data-name="Capa 2" xmlns="http://www.w3.org/2000/svg" xmlns:xlink="http://www.w3.org/1999/xlink" viewBox="0 0 510.28 510.37">
  <defs>
    <style>
      .cls-1 {
        fill: #fff;
      }

      .cls-2 {
        fill: url(#Degradado_sin_nombre_7);
      }
    </style>
    <linearGradient id="Degradado_sin_nombre_7" data-name="Degradado sin nombre 7" x1="0" y1="255.19" x2="510.28" y2="255.19" gradientUnits="userSpaceOnUse">
      <stop offset="0" stop-color="#0092ca"/>
      <stop offset="1" stop-color="#1b3b76"/>
    </linearGradient>
  </defs>
  <g id="Capa_1-2" data-name="Capa 1">
    <g id="M6Ql0e.tif">
      <g>
        <path class="cls-2" d="M252.51,0c2,0,3.99,0,5.99,0,2.6,.39,5.19,1.08,7.8,1.13,18.01,.36,35.7,3.15,53.05,7.74,50.57,13.37,93.62,39.37,127.72,79.08,54.31,63.26,73.54,136.56,58.03,218.18-10.74,56.5-38.79,104.06-82.57,141.51-63.06,53.96-136.21,73.08-217.35,57.46-65.6-12.63-118.1-47.53-157.11-101.89C18.44,361.95,2.67,315.72,1.1,264.8c-.07-2.11-.72-4.2-1.1-6.3,0-2,0-3.99,0-5.99,.39-2.43,.88-4.85,1.15-7.29,1.49-13.32,1.84-26.88,4.58-39.94C19.4,140.14,53.08,87.56,107.1,48.54,148.53,18.62,194.98,2.68,246.21,1.1,248.32,1.03,250.41,.38,252.51,0Zm-4.54,311.79l.7,1.45c-5.38,5.17-10.94,10.17-16.1,15.55-13.1,13.68-17.46,30.11-12.8,48.25,9.8,38.15,57.32,50.9,85.2,23.09,39.67-39.57,79.28-79.2,118.84-118.87,15.9-15.94,15.97-35.65,.13-51.51-39.94-40.01-79.87-80.03-120.03-119.82-15.55-15.41-34.27-19.64-55.04-12.58-23.19,7.88-33.2,27.98-33.23,47.75-.03,14.33,5.81,26.74,16.14,36.88,5.53,5.43,10.98,10.95,17.38,17.34h-6.51c-37.58,0-75.16-.03-112.73,.04-5.3,.01-10.65,.2-15.89,.91-29.38,3.98-53.25,31.88-46.9,65.52,5.34,28.32,27.89,45.99,56.77,46.01,39.57,.03,79.15,0,118.72,0h5.34Z"/>
        <path class="cls-1" d="M247.97,311.79h-5.34c-39.57,0-79.15,.02-118.72,0-28.88-.02-51.43-17.68-56.77-46.01-6.35-33.64,17.53-61.54,46.9-65.52,5.24-.71,10.59-.9,15.89-.91,37.58-.07,75.16-.04,112.73-.04h6.51c-6.4-6.39-11.85-11.91-17.38-17.34-10.33-10.14-16.17-22.54-16.14-36.88,.04-19.76,10.05-39.87,33.23-47.75,20.77-7.06,39.48-2.83,55.04,12.58,40.16,39.79,80.09,79.81,120.03,119.82,15.83,15.86,15.77,35.57-.13,51.51-39.57,39.67-79.17,79.31-118.84,118.87-27.88,27.81-75.4,15.06-85.2-23.09-4.66-18.14-.3-34.57,12.8-48.25,5.16-5.38,10.72-10.38,16.1-15.55l-.7-1.45Z"/>
      </g>
    </g>
  </g>
</svg>