<?xml version="1.0" encoding="UTF-8"?>
<svg id="Capa_2" data-name="Capa 2" xmlns="http://www.w3.org/2000/svg" viewBox="0 0 300 300">
  <defs>
    <style>
      .cls-1 {
        fill: none;
      }

      .cls-2 {
        fill: #fff;
      }
    </style>
  </defs>
  <g id="Capa_2-2" data-name="Capa 2">
    <g>
      <rect class="cls-1" width="300" height="300"/>
      <g>
        <g id="O25l2j.tif">
          <g>
            <path class="cls-2" d="M123.87,263.66h-2.62c-1.26-.29-2.51-.62-3.78-.86-29.74-5.59-59.48-11.19-89.24-16.7-3.21-.59-5.79-1.7-7.11-4.86V106.74c1.16-2.2,2.61-3.97,5.29-4.47,27.37-5.09,54.74-10.22,82.1-15.36,4.26-.8,8.49-1.72,12.74-2.58,1,0,1.99,0,2.99,0,3.49,1.49,4.68,4.19,4.53,7.89-.19,4.72-.05,9.45-.05,14.17v1.85h2.51c24.43,0,48.87,.05,73.3-.05,3.69-.01,6.39,1.05,7.88,4.53v122.55c-1.46,3.4-4.05,4.55-7.7,4.53-24.59-.1-49.18-.05-73.77-.05h-2.22c0,5.64-.12,10.99,.04,16.34,.12,3.78-1.27,6.34-4.9,7.58ZM200.37,120.32h-71.55v11.82c.69,0,1.3,0,1.91,0,5.29,0,10.59-.05,15.88,.02,3.44,.05,5.98,2.61,6.02,5.87,.04,3.26-2.48,5.89-5.85,6.04-1.18,.05-2.37,.02-3.55,.02-4.78,0-9.55,0-14.38,0v11.96c5.84,0,11.56-.02,17.27,0,3.83,.02,6.5,2.5,6.51,5.97,0,3.47-2.67,5.96-6.49,5.97-5.11,.03-10.21,0-15.32,0-.66,0-1.32,0-1.95,0v11.96c5.81,0,11.47-.02,17.14,0,3.96,.02,6.66,2.51,6.62,6.05-.04,3.46-2.71,5.88-6.57,5.9-5.11,.02-10.21,0-15.32,0-.65,0-1.3,0-1.91,0v11.96c.71,0,1.32,0,1.94,0,5.04,0,10.09-.01,15.13,0,4.01,.01,6.7,2.41,6.72,5.94,.02,3.53-2.68,5.99-6.64,6.01-4.55,.02-9.09,0-13.64,0-1.16,0-2.32,0-3.48,0v11.86h71.51V120.32Zm-123.44,61.7c.6,.65,1.07,1.15,1.51,1.66,5.17,5.9,10.31,11.82,15.5,17.69,2.6,2.94,6.11,3.32,8.75,1.06,2.72-2.32,2.82-5.9,.2-8.94-2.48-2.88-4.99-5.72-7.49-8.58-3.64-4.16-7.28-8.33-10.94-12.52,.41-.56,.73-1.01,1.07-1.45,5.84-7.52,11.68-15.04,17.54-22.54,1.33-1.7,2.13-3.52,1.56-5.7-.63-2.38-2.18-3.9-4.58-4.42-2.58-.55-4.62,.47-6.2,2.5-5.35,6.87-10.69,13.75-16.04,20.62-.44,.56-.91,1.1-1.41,1.71-.5-.55-.83-.92-1.16-1.29-4.43-5.06-8.86-10.1-13.28-15.17-1.63-1.87-3.58-2.93-6.09-2.43-4.6,.92-6.36,6.21-3.24,9.9,3.41,4.04,6.95,7.98,10.43,11.96,1.95,2.23,3.89,4.47,5.83,6.7-.42,.56-.7,.96-1.01,1.35-5.04,6.49-10.07,12.98-15.12,19.45-1.28,1.64-2.1,3.4-1.61,5.52,.56,2.4,2.06,3.92,4.45,4.52,2.69,.68,4.76-.35,6.38-2.43,3.68-4.7,7.34-9.43,11-14.14,1.29-1.66,2.58-3.31,3.94-5.05Z"/>
            <path class="cls-2" d="M176.59,144.09c-1.99,0-3.98,.05-5.97,0-3.42-.1-5.97-2.61-6.01-5.87-.05-3.33,2.52-5.98,6.02-6.05,3.98-.07,7.96-.08,11.94,0,3.4,.08,5.93,2.7,5.92,5.96,0,3.26-2.54,5.84-5.93,5.95-1.99,.07-3.98,.01-5.97,.01Z"/>
            <path class="cls-2" d="M176.56,156.06c1.93,0,3.86-.04,5.78,0,3.55,.09,6.13,2.61,6.15,5.94,.02,3.33-2.57,5.93-6.08,5.99-3.92,.06-7.84,.06-11.75,0-3.5-.06-6.08-2.69-6.05-6.01,.03-3.26,2.56-5.79,5.99-5.9,1.99-.07,3.98-.01,5.97-.01Z"/>
            <path class="cls-2" d="M176.55,179.98c1.99,0,3.98-.05,5.97,.01,3.42,.11,5.95,2.66,5.97,5.92,.02,3.33-2.56,5.95-6.07,6-3.92,.06-7.84,.06-11.75,0-3.51-.06-6.09-2.67-6.07-6,.02-3.26,2.55-5.8,5.97-5.92,1.99-.07,3.98-.01,5.97-.01Z"/>
            <path class="cls-2" d="M176.55,215.83c-1.99,0-3.98,.05-5.97-.01-3.4-.1-5.95-2.65-5.97-5.91-.03-3.26,2.49-5.92,5.88-6,4.04-.09,8.09-.09,12.13,0,3.39,.08,5.91,2.74,5.88,6-.03,3.26-2.57,5.81-5.97,5.91-1.99,.06-3.98,.01-5.97,.01Z"/>
          </g>
        </g>
        <g id="nbZihs.tif">
          <g>
            <path class="cls-2" d="M278.88,66.42h-12.02v-18h-66.14v17.95h-12.06v-22.66c0-4.34,1.04-5.85,5.08-7.36h80.07c.55,.2,1.13,.37,1.66,.62,1.9,.89,2.88,2.51,3.42,4.46v25Z"/>
            <path class="cls-2" d="M278.88,41.42c-.54-1.94-1.52-3.57-3.42-4.46-.53-.25-1.1-.41-1.66-.62h5.08v5.08Z"/>
          </g>
        </g>
        <path class="cls-2" d="M242.79,90.5v1.26c0,12.37,0,24.74,0,37.11,0,2.68-1.07,3.74-3.76,3.74-3.57,0-7.14,0-10.71,0-2.44,0-3.57-1.13-3.57-3.55,0-12.43,0-24.87,0-37.3v-1.26c-.37,0-.7,0-1.03,0-3.51,0-7.01-.01-10.52,0-1.4,0-2.54-.43-3.17-1.74-.65-1.36-.2-2.53,.74-3.61,6.83-7.8,13.65-15.6,20.48-23.4,1.58-1.8,3.48-1.8,5.05,0,6.83,7.79,13.65,15.6,20.48,23.4,.94,1.08,1.39,2.25,.74,3.61-.63,1.31-1.77,1.75-3.17,1.74-3.48-.02-6.95,0-10.43,0-.34,0-.68,0-1.12,0Z"/>
      </g>
    </g>
  </g>
</svg>