<?xml version="1.0" encoding="UTF-8"?>
<svg id="Capa_2" data-name="Capa 2" xmlns="http://www.w3.org/2000/svg" viewBox="0 0 300 300">
  <defs>
    <style>
      .cls-1 {
        fill: none;
      }

      .cls-2 {
        fill: #fff;
      }

      .cls-3 {
        fill: #ed1c24;
      }
    </style>
  </defs>
  <g id="Capa_2-2" data-name="Capa 2">
    <g>
      <g>
        <g>
          <path class="cls-2" d="M280.02,10.5v21.88H19.98V10.5H280.02Z"/>
          <path class="cls-2" d="M128.47,289.5v-4.8c0-42.79-.06-85.58,.09-128.37,.01-4.42-1.25-7.63-4.37-10.77C92.07,113.22,60.09,80.75,28.07,48.31c-.74-.75-1.45-1.54-2.54-2.7h249.14c-.82,.92-1.44,1.67-2.13,2.37-32.16,32.59-64.31,65.21-96.55,97.72-2.93,2.95-4.24,5.92-4.22,10.16,.16,35.6,.06,71.21,.16,106.81,0,2.75-.86,4.11-3.28,5.39-12.23,6.43-24.34,13.08-36.5,19.65-1.01,.55-2.06,1.01-3.68,1.8Z"/>
        </g>
        <path class="cls-2" d="M226.85,118.71c6.19,1.12,12.38,2.23,18.57,3.35,3.99,.72,8.26,1.59,11.06,4.52,2.74,2.88,3.43,7.1,3.94,11.04,1.53,11.81,2.64,23.68,3.32,35.57,.5,8.76,.69,17.96-3.2,25.82-6.28,12.68-21.32,18.33-35.33,20.32-17.71,2.51-36.95,.62-51.35-9.99-3.65-2.69-6.99-5.99-8.86-10.13-1.42-3.16-1.91-6.64-2.29-10.09-1.72-15.85-4.86-42.73,5.2-56.67,13.99-19.39,38.22-17.48,58.95-13.75Z"/>
        <path class="cls-3" d="M279.82,169.49c-.92,3.93-1.66,7.92-2.8,11.79-13.59,46.23-70.33,63.51-107.1,32.4-11.65-9.86-17.53-23.32-19.58-38.23-4.81-34.87,17.51-66.88,51.92-74.6,31.27-7.01,70.77,8.47,76.92,52.55,.11,.81,.42,1.6,.64,2.4v13.68Zm-75.43-4.89c-8.37,8.33-16.37,16.27-24.35,24.24-3.69,3.69-4.27,8.56-1.44,11.54,2.95,3.11,8.04,2.68,11.86-1.12,6.39-6.33,12.75-12.69,19.08-19.09,1.74-1.76,3.3-3.71,5.03-5.67,1.51,1.43,2.39,2.23,3.23,3.06,7.39,7.37,14.74,14.78,22.16,22.12,3.54,3.51,8.04,3.66,11.18,.53,3.03-3.03,2.72-6.96-.99-10.7-7.52-7.58-15.09-15.11-22.62-22.67-.72-.73-1.35-1.54-2.18-2.49,8.52-8.49,16.83-16.79,25.15-25.08,3.97-3.96,4.43-8.05,1.24-11.32-3.31-3.4-7.43-2.95-11.57,1.21-7.62,7.65-15.25,15.28-22.9,22.91-.73,.73-1.56,1.35-2.51,2.16-6.9-6.94-13.58-13.66-20.26-20.37-1.78-1.78-3.49-3.65-5.39-5.29-3.16-2.73-7.45-2.74-10.17-.19-2.7,2.52-2.82,7.32-.21,10.5,.84,1.01,1.83,1.9,2.76,2.83,7.53,7.54,15.07,15.07,22.91,22.9Z"/>
      </g>
      <rect class="cls-1" width="300" height="300"/>
    </g>
  </g>
</svg>