<?xml version="1.0" encoding="UTF-8"?>
<svg id="Capa_2" data-name="Capa 2" xmlns="http://www.w3.org/2000/svg" viewBox="0 0 300 300">
  <defs>
    <style>
      .cls-1 {
        fill: none;
      }

      .cls-2 {
        fill: #fff;
      }
    </style>
  </defs>
  <g id="Capa_2-2" data-name="Capa 2">
    <g>
      <g>
        <path class="cls-2" d="M280.02,10.5v21.88H19.98V10.5H280.02Z"/>
        <path class="cls-2" d="M128.47,289.5v-4.8c0-42.79-.06-85.58,.09-128.37,.01-4.42-1.25-7.63-4.37-10.77C92.07,113.22,60.09,80.75,28.07,48.31c-.74-.75-1.45-1.54-2.54-2.7h249.14c-.82,.92-1.44,1.67-2.13,2.37-32.16,32.59-64.31,65.21-96.55,97.72-2.93,2.95-4.24,5.92-4.22,10.16,.16,35.6,.06,71.21,.16,106.81,0,2.75-.86,4.11-3.28,5.39-12.23,6.43-24.34,13.08-36.5,19.65-1.01,.55-2.06,1.01-3.68,1.8Z"/>
      </g>
      <rect class="cls-1" width="300" height="300"/>
    </g>
  </g>
</svg>