<?xml version="1.0" encoding="UTF-8"?>
<svg id="Capa_2" data-name="Capa 2" xmlns="http://www.w3.org/2000/svg" viewBox="0 0 657 657">
  <defs>
    <style>
      .cls-1, .cls-2, .cls-3 {
        fill: none;
      }

      .cls-2 {
        stroke-width: 6px;
      }

      .cls-2, .cls-4, .cls-3 {
        stroke: #fff;
        stroke-miterlimit: 10;
      }

      .cls-4 {
        stroke-width: 3px;
      }

      .cls-5 {
        fill: #fff;
      }

      .cls-3 {
        stroke-width: 5px;
      }
    </style>
  </defs>
  <g id="Capa_1-2" data-name="Capa 1">
    <g>
      <g id="zFEKMw.tif">
        <path class="cls-5" d="M331.49,517.03c-20.76-16.68-41.27-33-61.6-49.53-33.53-27.24-58.71-60.64-73.9-101.29-8.7-23.3-13.31-47.39-13.37-72.28-.08-31.5,.02-63-.1-94.5-.01-2.92,.86-4.12,3.61-5.09,47.44-16.84,94.83-33.83,142.27-50.68,1.82-.64,4.25-.72,6.05-.08,47.58,16.88,95.11,33.92,142.68,50.84,2.37,.84,3.25,1.92,3.24,4.51-.11,33.21,.59,66.44-.28,99.63-1.31,50.2-19.2,94.57-51.14,133.01-10.32,12.42-22.1,23.86-34.37,34.38-20.43,17.52-41.79,33.93-63.09,51.07Z"/>
      </g>
      <g id="CLN1r2.tif">
        <path class="cls-4" d="M317.38,211.57c.86,0,1.73,0,2.59,0,5.45,4.3,11.17,8.32,16.31,12.97,11.97,10.83,21.31,23.56,26.26,39.13,1.12,3.51,1.81,7.15,2.78,11.03,1.98-2.74,3.23-5.57,3.39-8.67,.16-3.35-.09-6.73-.35-10.08-.15-1.99-.23-3.78,1.91-4.76,1.73-.79,3.17-.21,4.72,1.88,.13,.17,.25,.35,.38,.53,10.5,14.82,18.78,30.8,24.86,47.9,5.36,15.09,8.81,30.55,7.41,46.73-1.47,17.01-8.59,31.01-22.31,41.42-10.16,7.71-21.79,12.11-34.05,15.07-2.43,.59-4.03,.05-4.81-1.62-.82-1.74-.14-3.38,1.97-4.88,10.65-7.56,14.96-18.06,14.03-30.85-.77-10.58-4.93-20.02-10.13-29.07-.12-.2-.38-.32-.64-.53-.92,2.18-1.84,4.21-2.64,6.29-.73,1.87-1.85,3.14-4.01,2.84-2.16-.31-2.83-1.87-3.04-3.85-1-9.31-4.92-17.19-11.65-23.68-.38-.37-.85-.65-1.5-1.13-.04,.57-.07,.83-.07,1.1,.09,6.87-1.89,13.18-5.21,19.13-4.9,8.77-11.91,15.63-19.7,21.78-.78,.62-1.62,1.23-2.23,2.01-6.53,8.38-6.77,19.71-.16,28,2.46,3.08,5.94,5.34,8.89,8.05,.86,.79,1.84,1.73,2.14,2.78,.63,2.23-1.33,4.13-4.06,3.96-10.93-.65-21.49-2.91-31.42-7.68-10.03-4.81-18.26-11.65-22.63-22.12-6.29-15.06-4.38-29.57,4.05-43.31,3.61-5.88,7.87-11.38,11.3-17.36,4.11-7.17,5.15-14.76,.7-22.33-.92-1.56-1.34-3.05-.11-4.58,1.29-1.6,2.9-1.55,4.68-.85,6.51,2.53,12.36,6.1,17.45,10.9,.44,.41,.91,.79,1.52,1.31,.19-.9,.33-1.53,.44-2.16,2.76-16.29,9.77-30.51,21.31-42.28,5.34-5.45,6.87-11.74,6.15-18.94-.63-6.24-2.82-12-5.57-17.58-1.64-3.33-1.52-4.11,1.06-6.5Z"/>
      </g>
      <path class="cls-4" d="M580.51,148.02c0-21.58-17.49-39.07-39.07-39.07H113.63c-21.58,0-39.07,17.49-39.07,39.07V508.98c0,21.58,17.49,39.07,39.07,39.07h427.81c21.58,0,39.07-17.49,39.07-39.07V148.02Zm-193.74,286.71c-18.67,16.84-38.98,31.88-58.55,47.72-.17,.14-.42,.17-.91,.36-8.31-6.68-16.85-13.3-25.13-20.25-14.95-12.55-30.68-24.35-44.42-38.13-28.37-28.46-45.66-63.01-51.47-102.97-1.08-7.43-1.56-15-1.61-22.51-.19-26.13-.08-52.27-.09-78.41v-2.92c13.3-4.78,26.44-9.52,39.58-14.21,26.88-9.6,53.76-19.19,80.67-28.7,1.43-.51,3.3-.79,4.66-.31,39.85,14.14,79.67,28.4,119.48,42.64,.43,.16,.84,.38,1.5,.69v4.14c0,23.9-.09,47.8,.02,71.7,.25,56.78-22.09,103.57-63.74,141.15Z"/>
      <g>
        <line class="cls-2" x1="76.49" y1="171.2" x2="582.44" y2="171.2"/>
        <line class="cls-2" x1="76.49" y1="237.56" x2="207.1" y2="237.56"/>
        <line class="cls-2" x1="451.71" y1="237.56" x2="582.32" y2="237.56"/>
        <line class="cls-2" x1="76.49" y1="298.44" x2="207.1" y2="298.44"/>
        <line class="cls-2" x1="451.71" y1="298.44" x2="582.32" y2="298.44"/>
        <line class="cls-2" x1="76.49" y1="359.31" x2="218.08" y2="359.31"/>
        <line class="cls-2" x1="440.73" y1="359.31" x2="582.32" y2="359.31"/>
        <line class="cls-2" x1="76.49" y1="420.18" x2="254" y2="420.24"/>
        <line class="cls-2" x1="404.81" y1="420.18" x2="582.32" y2="420.24"/>
        <line class="cls-2" x1="76.49" y1="481.06" x2="582.44" y2="481.06"/>
      </g>
      <line class="cls-3" x1="115.91" y1="108.71" x2="115.91" y2="174.27"/>
      <line class="cls-3" x1="240.65" y1="109.19" x2="240.65" y2="174.75"/>
      <line class="cls-3" x1="217.6" y1="361.86" x2="217.72" y2="420.56"/>
      <line class="cls-3" x1="240.65" y1="480.43" x2="240.65" y2="548.29"/>
      <line class="cls-3" x1="177.78" y1="171.75" x2="177.78" y2="238.44"/>
      <line class="cls-3" x1="115.91" y1="237.94" x2="115.91" y2="298.81"/>
      <line class="cls-3" x1="177.78" y1="295.82" x2="177.78" y2="361.18"/>
      <line class="cls-3" x1="115.91" y1="359.69" x2="115.91" y2="420.56"/>
      <line class="cls-3" x1="177.78" y1="420.56" x2="177.78" y2="481.43"/>
      <line class="cls-3" x1="115.91" y1="480.43" x2="115.91" y2="548.29"/>
      <line class="cls-3" x1="311.5" y1="468.64" x2="311.5" y2="481.43"/>
      <line class="cls-3" x1="477.16" y1="171.75" x2="477.16" y2="237.94"/>
      <line class="cls-3" x1="477.16" y1="298.81" x2="477.16" y2="359.69"/>
      <line class="cls-3" x1="457.2" y1="420.56" x2="457.2" y2="481.43"/>
      <line class="cls-3" x1="529.05" y1="109.19" x2="529.05" y2="174.75"/>
      <line class="cls-3" x1="529.05" y1="237.94" x2="529.05" y2="298.81"/>
      <line class="cls-3" x1="529.05" y1="359.69" x2="529.05" y2="420.56"/>
      <line class="cls-3" x1="529.05" y1="480.43" x2="529.05" y2="548.29"/>
      <line class="cls-3" x1="384.35" y1="109.19" x2="384.35" y2="174.75"/>
      <line class="cls-3" x1="384.35" y1="480.43" x2="384.35" y2="548.29"/>
      <g id="fwdqXD.tif">
        <path class="cls-1" d="M329.44,482.58c-17.11-13.75-34.01-27.2-50.77-40.82-27.64-22.45-48.39-49.98-60.91-83.48-7.17-19.2-10.97-39.06-11.02-59.57-.06-25.96,.01-51.92-.09-77.89,0-2.4,.71-3.39,2.97-4.2,39.1-13.88,78.16-27.89,117.26-41.77,1.5-.53,3.5-.59,4.98-.07,39.22,13.92,78.39,27.95,117.6,41.9,1.95,.69,2.68,1.59,2.67,3.72-.09,27.37,.49,54.76-.23,82.11-1.08,41.38-15.82,77.94-42.15,109.63-8.51,10.24-18.21,19.66-28.33,28.34-16.84,14.44-34.45,27.97-52,42.1Z"/>
      </g>
    </g>
    <rect class="cls-1" width="657" height="657"/>
  </g>
</svg>