<?xml version="1.0" encoding="UTF-8"?>
<svg id="Capa_2" data-name="Capa 2" xmlns="http://www.w3.org/2000/svg" xmlns:xlink="http://www.w3.org/1999/xlink" viewBox="0 0 3361.23 3361.85">
  <defs>
    <style>
      .cls-1 {
        fill: #fff;
      }

      .cls-2 {
        fill: url(#Degradado_sin_nombre_7);
      }
    </style>
    <linearGradient id="Degradado_sin_nombre_7" data-name="Degradado sin nombre 7" x1="0" y1="1680.92" x2="3361.23" y2="1680.92" gradientTransform="translate(3361.23 3361.85) rotate(-180)" gradientUnits="userSpaceOnUse">
      <stop offset="0" stop-color="#0092ca"/>
      <stop offset="1" stop-color="#1b3b76"/>
    </linearGradient>
  </defs>
  <g id="Capa_1-2" data-name="Capa 1">
    <g id="M6Ql0e.tif">
      <g>
        <path class="cls-2" d="M1697.96,3361.85c-13.15,0-26.3,0-39.45,0-17.11-2.59-34.19-7.13-51.35-7.47-118.66-2.35-235.14-20.77-349.43-50.98-333.12-88.07-616.67-259.32-841.28-520.92C58.7,2365.81-67.99,1882.95,34.19,1345.34c70.74-372.2,255.52-685.42,543.9-932.16C993.45,57.77,1475.31-68.2,2009.81,34.68c432.1,83.17,777.94,313.1,1034.87,671.13,195.1,271.87,298.95,576.36,309.34,911.8,.43,13.9,4.72,27.68,7.22,41.52,0,13.15,0,26.3,0,39.45-2.56,16.01-5.77,31.95-7.58,48.04-9.85,87.75-12.14,177.05-30.19,263.06-90.05,429.04-311.88,775.42-667.71,1032.44-272.89,197.1-578.88,302.08-916.35,312.53-13.88,.43-27.63,4.72-41.45,7.21Zm29.9-2053.79c-1.53-3.17-3.06-6.35-4.59-9.52,35.43-34.07,72.08-66.96,106.05-102.42,86.31-90.12,115-198.36,84.31-317.83-64.55-251.27-377.59-335.27-561.23-152.09-261.31,260.64-522.2,521.71-782.83,783.03-104.74,105.02-105.18,234.85-.89,339.33,263.09,263.54,526.09,527.18,790.61,789.28,102.45,101.51,225.73,129.35,362.53,82.86,152.74-51.9,218.67-184.33,218.91-314.51,.17-94.43-38.28-176.12-106.34-242.93-36.44-35.77-72.31-72.12-114.47-114.24h42.86c247.53,0,495.05,.23,742.58-.26,34.92-.07,70.14-1.34,104.69-6.01,193.5-26.2,350.76-209.97,308.96-431.58-35.2-186.58-183.68-302.93-373.95-303.05-260.67-.17-521.34-.04-782.01-.05h-35.19Z"/>
        <path class="cls-1" d="M1727.85,1308.06h35.19c260.67,0,521.34-.12,782.01,.05,190.27,.12,338.75,116.47,373.95,303.05,41.8,221.61-115.46,405.38-308.96,431.58-34.55,4.68-69.77,5.94-104.69,6.01-247.53,.49-495.05,.26-742.58,.26h-42.86c42.16,42.11,78.03,78.47,114.47,114.24,68.06,66.8,106.51,148.5,106.34,242.93-.24,130.18-66.17,262.61-218.91,314.51-136.8,46.49-260.08,18.65-362.53-82.86-264.53-262.09-527.53-525.73-790.61-789.28-104.29-104.48-103.85-234.3,.89-339.33,260.63-261.33,521.52-522.39,782.83-783.03,183.64-183.17,496.68-99.17,561.23,152.09,30.69,119.47,2,227.71-84.31,317.83-33.97,35.47-70.62,68.36-106.05,102.42,1.53,3.17,3.06,6.35,4.59,9.52Z"/>
      </g>
    </g>
  </g>
</svg>