<svg xmlns="http://www.w3.org/2000/svg" viewBox="0 0 42.63 51.91"><defs><style>.cls-1{fill:#fff;}</style></defs><g id="Capa_2" data-name="Capa 2"><g id="Capa_1-2" data-name="Capa 1"><g id="_8mfbvB.tif" data-name="8mfbvB.tif"><path class="cls-1" d="M19.89,0h2.84a2.74,2.74,0,0,0,.39.09A19.87,19.87,0,0,1,31.49,2.6,21.16,21.16,0,0,1,42,15.92a16.62,16.62,0,0,1-1,11.94,50.17,50.17,0,0,1-5.35,8.64,116.71,116.71,0,0,1-13.88,15,4.36,4.36,0,0,0-.35.4h-.21a4.36,4.36,0,0,0-.35-.4,128.35,128.35,0,0,1-11-11.45A61.07,61.07,0,0,1,2.06,28.78,17,17,0,0,1,.38,17.15,21.38,21.38,0,0,1,7.29,5.29,20.72,20.72,0,0,1,17.25.4C18.13.24,19,.13,19.89,0Zm1.49,34.3A14.16,14.16,0,1,0,7.21,20.16,14.16,14.16,0,0,0,21.38,34.3Z"/><path class="cls-1" d="M24.08,23.45v6.13h-3.9c0-.18,0-.36,0-.54,0-5.37,0-10.74,0-16.11,0-.48.14-.63.61-.68a28.29,28.29,0,0,1,7.12-.08,5.24,5.24,0,0,1,4.78,4.33A5.56,5.56,0,0,1,28.53,23a11.21,11.21,0,0,1-3.86.38h-.46S24.15,23.41,24.08,23.45Zm0-3.16a4.81,4.81,0,0,0,3.74-.61,2.62,2.62,0,0,0-.33-4.34,5.59,5.59,0,0,0-3.41-.21Z"/><path class="cls-1" d="M16.68,29.6H12.77V12.14h3.91Z"/></g></g></g></svg>