<svg xmlns="http://www.w3.org/2000/svg" viewBox="0 0 33.35 44.49"><defs><style>.cls-1{fill:#fff;}</style></defs><g id="Capa_2" data-name="Capa 2"><g id="Capa_1-2" data-name="Capa 1"><g id="_6rqBtz.tif" data-name="6rqBtz.tif"><path class="cls-1" d="M0,40.93V20.25s.06-.07.07-.11a4.17,4.17,0,0,1,4.34-3.46H5.56v-.52c0-1.75,0-3.5,0-5.25A11.07,11.07,0,0,1,13.11.61C14,.33,14.85.2,15.72,0h1.91l.68.12A11.13,11.13,0,0,1,27.79,11.3v5.38h1.15a4.19,4.19,0,0,1,4.41,4.42v19a4.18,4.18,0,0,1-4.41,4.41H4.28A4.18,4.18,0,0,1,.21,41.62C.13,41.39.07,41.16,0,40.93ZM24.08,16.66c0-1.45,0-2.86,0-4.28A18.07,18.07,0,0,0,24,9.83,7.4,7.4,0,0,0,9.27,11.22c0,1.46,0,2.92,0,4.39v1.05ZM14.83,33.33v.73c0,.41,0,.82,0,1.22a1.85,1.85,0,0,0,1.86,1.8,1.82,1.82,0,0,0,1.82-1.79c0-1.25,0-2.51,0-3.77a.84.84,0,0,1,.39-.79,3.64,3.64,0,0,0,1.21-4.3,3.7,3.7,0,0,0-7,.44,3.6,3.6,0,0,0,1.41,3.91.66.66,0,0,1,.32.64C14.81,32.05,14.83,32.69,14.83,33.33Z"/></g></g></g></svg>