<?xml version="1.0" encoding="UTF-8"?>
<svg id="Capa_2" data-name="Capa 2" xmlns="http://www.w3.org/2000/svg" viewBox="0 0 657 657">
  <defs>
    <style>
      .cls-1 {
        fill: none;
      }

      .cls-2 {
        fill: #fff;
      }
    </style>
  </defs>
  <g id="Capa_2-2" data-name="Capa 2">
    <rect class="cls-1" width="657" height="657"/>
    <g id="gplehH.tif">
      <g>
        <path class="cls-2" d="M584.5,353.5v57c-2.78,7-4.88,14.39-8.57,20.87-3.11,5.47-8.07,9.9-11.35,13.77,5.17,7.48,10.7,14.65,15.25,22.4,2.43,4.14,3.16,9.28,4.66,13.97v57c-.35,1.05-.79,2.09-1.04,3.17-4.71,19.96-16.84,33.28-36.05,40.21-2.9,1.05-5.93,1.75-8.9,2.62H118.5c-1.06-.35-2.09-.78-3.17-1.04-19.92-4.76-33.31-16.82-40.21-36.06-1.04-2.91-1.75-5.93-2.62-8.9,0-19,0-38,0-57,3.22-14.08,9.37-26.43,21.67-35.57-3.37-3.27-6.61-6.08-9.47-9.25-6.72-7.45-9.59-16.77-12.2-26.18v-57c3.22-14.08,9.37-26.43,21.66-35.57-3.37-3.27-6.61-6.08-9.47-9.25-6.72-7.45-9.59-16.77-12.2-26.18,0-19,0-38,0-57,3.41-8.21,5.85-17.02,10.41-24.53,20.59-33.96,41.82-67.53,62.74-101.29,6.31-10.18,14.5-18.21,25.64-22.79,4.56-1.88,9.46-2.95,14.21-4.38,95.67,0,191.33,0,287,0,.23,.23,.43,.62,.69,.66,18.43,3.16,30.86,14.09,40.32,29.72,16.53,27.32,33.64,54.29,50.5,81.42,8.13,13.08,17.2,25.7,20.49,41.2v57c-2.78,7-4.88,14.39-8.57,20.87-3.11,5.47-8.07,9.9-11.35,13.77,5.17,7.48,10.7,14.65,15.25,22.4,2.43,4.14,3.16,9.28,4.66,13.97Zm-256.26-46.26c43.15,0,86.31,0,129.46,0,23.66,0,47.32,.08,70.98-.03,18.01-.08,32.66-11.19,33.71-26.93,1.08-16.25,.56-32.61,.62-48.92,0-2.3-.43-4.66-1.03-6.89-4.07-15.21-16.42-23.96-33.78-23.96-133.12,0-266.25,0-399.37,0-1.5,0-3,0-4.5,.1-16.18,1.08-28.91,12.57-29.92,28.77-.97,15.6-.62,31.29-.32,46.93,.08,4.33,1.4,8.96,3.31,12.89,6.42,13.16,17.81,18.07,31.91,18.06,66.31-.03,132.62-.01,198.94-.01Zm.28,21.26c-66.15,0-132.29,0-198.44,.01-2.5,0-5.01-.02-7.49,.26-15.22,1.67-27.26,13.06-28.17,28.34-.93,15.6-.65,31.29-.37,46.94,.08,4.34,1.32,8.98,3.22,12.92,6.55,13.61,18.3,18.32,32.77,18.31,132.29-.06,264.58-.03,396.87-.03,1.17,0,2.33,.04,3.5-.02,17.04-.86,30.97-11.67,31.93-26.67,1.07-16.74,.45-33.6,.47-50.41,0-1.96-.4-3.98-.93-5.89-4.11-14.89-16.31-23.72-32.94-23.73-66.81-.03-133.62-.01-200.44-.01Zm0,128c-66.15,0-132.29,0-198.44,.01-2.5,0-5.01-.02-7.49,.26-15.22,1.67-27.25,13.06-28.16,28.34-.93,15.6-.65,31.29-.37,46.94,.08,4.34,1.33,8.98,3.22,12.92,6.56,13.61,18.3,18.31,32.77,18.31,132.29-.06,264.58-.03,396.87-.03,1.17,0,2.33,.04,3.5-.02,17.04-.86,30.97-11.67,31.93-26.68,1.07-16.74,.45-33.6,.47-50.41,0-1.96-.4-3.98-.93-5.89-4.11-14.89-16.31-23.72-32.94-23.73-66.81-.03-133.62-.01-200.44-.01ZM121.48,179.09h413.99c-1.1-1.85-1.91-3.28-2.78-4.67-12.83-20.64-25.92-41.13-38.41-61.98-7.81-13.03-18.73-18.86-33.82-18.8-55.32,.23-110.63,.09-165.95,.09-32.99,0-65.98,.11-98.97-.05-14.27-.07-24.79,5.64-32.24,17.95-12.4,20.51-25.26,40.75-37.92,61.11-1.22,1.96-2.41,3.92-3.91,6.35Z"/>
        <path d="M328.24,307.24c-66.31,0-132.62-.02-198.94,.01-14.1,0-25.49-4.9-31.91-18.06-1.91-3.92-3.22-8.55-3.31-12.89-.3-15.64-.65-31.34,.32-46.93,1.01-16.2,13.74-27.69,29.92-28.77,1.49-.1,3-.1,4.5-.1,133.12,0,266.25,0,399.37,0,17.37,0,29.72,8.75,33.78,23.96,.6,2.23,1.04,4.59,1.03,6.89-.06,16.31,.47,32.67-.62,48.92-1.05,15.74-15.7,26.84-33.71,26.93-23.66,.11-47.32,.03-70.98,.03-43.15,0-86.31,0-129.46,0Zm95.89-64c27.14,0,54.28,0,81.41,0,9.74,0,14.99-3.86,14.88-10.87-.11-6.91-5.2-10.63-14.63-10.64-54.28,0-108.55-.01-162.83,.02-2.14,0-4.33,.2-6.41,.69-4.73,1.11-8.03,5.47-7.97,10.17,.06,4.75,3.38,8.93,8.21,9.96,2.25,.48,4.61,.64,6.92,.64,26.8,.04,53.61,.03,80.41,.03Zm.12,42.49c27.66,0,55.32,.02,82.98-.01,8.19-.01,13.11-3.98,13.2-10.44,.09-6.64-5-10.72-13.44-10.77-1,0-2,0-3,0-31.49,0-62.98,0-94.48,0-22.99,0-45.99-.05-68.98,.04-7.22,.03-12.03,4.54-11.95,10.73,.08,5.99,4.73,10.17,11.69,10.44,1.33,.05,2.67,.02,4,.02,26.66,0,53.32,0,79.98,0Zm-277.09-.06c17.5,0,31.73-14.06,31.99-31.58,.26-17.35-14.49-32.23-31.97-32.27-17.51-.03-32.01,14.64-31.87,32.24,.14,17.56,14.31,31.62,31.85,31.61Z"/>
        <path d="M328.52,328.5c66.81,0,133.62-.02,200.44,.01,16.63,0,28.83,8.85,32.94,23.73,.53,1.91,.93,3.92,.93,5.89-.02,16.81,.6,33.66-.47,50.41-.96,15.01-14.89,25.81-31.93,26.67-1.16,.06-2.33,.02-3.5,.02-132.29,0-264.58-.02-396.87,.03-14.47,0-26.21-4.71-32.77-18.31-1.89-3.93-3.14-8.57-3.22-12.92-.27-15.64-.56-31.33,.37-46.94,.91-15.28,12.95-26.67,28.17-28.34,2.48-.27,4.99-.26,7.49-.26,66.15-.01,132.29-.01,198.44,0Zm95.92,21.22c-26.97,0-53.94,0-80.91,0-9.77,0-14.99,3.79-14.94,10.82,.04,7.01,5.21,10.69,15.07,10.69,53.94,0,107.88,0,161.83,0,9.78,0,15-3.8,14.94-10.81-.06-7.03-5.21-10.7-15.07-10.7-26.97,0-53.94,0-80.91,0Zm-.19,64c27.66,0,55.32,.02,82.98-.01,8.19-.01,13.11-3.98,13.2-10.44,.09-6.64-5-10.72-13.44-10.77-1,0-2,0-3,0-31.49,0-62.98,0-94.48,0-22.99,0-45.99-.05-68.98,.04-7.22,.03-12.03,4.54-11.95,10.73,.08,5.99,4.73,10.17,11.69,10.44,1.33,.05,2.67,.02,4,.02,26.66,0,53.32,0,79.98,0Zm-277.05-.06c17.49-.03,31.75-14.14,31.95-31.63,.2-17.38-14.57-32.25-32.02-32.23-17.54,.02-31.99,14.68-31.83,32.29,.16,17.56,14.34,31.6,31.89,31.57Z"/>
        <path d="M328.51,456.5c66.81,0,133.62-.02,200.44,.01,16.63,0,28.83,8.84,32.94,23.73,.53,1.91,.93,3.92,.93,5.89-.02,16.81,.6,33.66-.47,50.41-.96,15.01-14.89,25.81-31.93,26.68-1.16,.06-2.33,.02-3.5,.02-132.29,0-264.58-.02-396.87,.03-14.47,0-26.21-4.7-32.77-18.31-1.9-3.93-3.14-8.57-3.22-12.92-.28-15.64-.56-31.33,.37-46.94,.91-15.29,12.94-26.67,28.16-28.34,2.48-.27,4.99-.26,7.49-.26,66.15-.01,132.29-.01,198.44,0Zm95.92,21.22c-26.97,0-53.94,0-80.91,0-9.77,0-14.99,3.8-14.94,10.83,.05,7.01,5.21,10.68,15.07,10.68,53.94,0,107.88,0,161.83,0,9.78,0,15-3.8,14.94-10.82-.07-7.03-5.21-10.69-15.07-10.69-26.97,0-53.94,0-80.91,0Zm-.18,64c27.66,0,55.32,.02,82.98-.01,8.18-.01,13.11-3.99,13.19-10.45,.09-6.64-5-10.71-13.45-10.77-1,0-2,0-3,0-31.83,0-63.65,0-95.48,0-22.66,0-45.32-.06-67.98,.04-7.21,.03-12.03,4.55-11.94,10.74,.08,5.99,4.74,10.16,11.7,10.44,1.33,.05,2.67,.02,4,.02,26.66,0,53.32,0,79.98,0Zm-277.32-.06c17.67,.11,32.29-14.35,32.21-31.86-.08-17.38-14.28-31.68-31.75-31.98-17.39-.3-32.1,14.38-32.09,32.01,0,17.55,14.09,31.72,31.63,31.83Z"/>
        <path d="M121.48,179.09c1.49-2.43,2.69-4.39,3.91-6.35,12.66-20.36,25.51-40.6,37.92-61.11,7.45-12.32,17.97-18.02,32.24-17.95,32.99,.17,65.98,.05,98.97,.05,55.32,0,110.63,.14,165.95-.09,15.09-.06,26.01,5.77,33.82,18.8,12.49,20.85,25.58,41.33,38.41,61.98,.87,1.39,1.68,2.82,2.78,4.67H121.48Z"/>
        <path class="cls-2" d="M424.13,243.24c-26.8,0-53.61,.02-80.41-.03-2.31,0-4.67-.16-6.92-.64-4.83-1.03-8.15-5.21-8.21-9.96-.06-4.7,3.24-9.06,7.97-10.17,2.08-.49,4.27-.69,6.41-.69,54.28-.04,108.55-.03,162.83-.02,9.43,0,14.52,3.73,14.63,10.64,.11,7.02-5.14,10.87-14.88,10.87-27.14,0-54.28,0-81.41,0Z"/>
        <path class="cls-2" d="M424.25,285.73c-26.66,0-53.32,0-79.98,0-1.33,0-2.67,.04-4-.02-6.96-.28-11.62-4.45-11.69-10.44-.08-6.19,4.73-10.7,11.95-10.73,22.99-.09,45.99-.04,68.98-.04,31.49,0,62.98,0,94.48,0,1,0,2,0,3,0,8.44,.06,13.53,4.13,13.44,10.77-.09,6.45-5.01,10.43-13.2,10.44-27.66,.04-55.32,.01-82.98,.01Z"/>
        <path class="cls-2" d="M147.15,285.66c-17.54,0-31.71-14.06-31.85-31.61-.14-17.6,14.37-32.27,31.87-32.24,17.48,.03,32.22,14.92,31.97,32.27-.26,17.52-14.49,31.57-31.99,31.58Zm10.48-32.03c-.09-5.8-4.72-10.31-10.54-10.28-5.68,.03-10.5,4.8-10.52,10.43-.03,5.72,5.24,10.85,10.91,10.63,5.68-.22,10.24-5.06,10.15-10.78Z"/>
        <path class="cls-2" d="M424.44,349.72c26.97,0,53.94,0,80.91,0,9.85,0,15,3.67,15.07,10.7,.06,7.01-5.16,10.81-14.94,10.81-53.94,0-107.88,0-161.83,0-9.86,0-15.03-3.68-15.07-10.69-.04-7.03,5.17-10.82,14.94-10.82,26.97,0,53.94,0,80.91,0Z"/>
        <path class="cls-2" d="M424.25,413.73c-26.66,0-53.32,0-79.98,0-1.33,0-2.67,.04-4-.02-6.96-.28-11.62-4.45-11.69-10.44-.08-6.19,4.73-10.7,11.95-10.73,22.99-.09,45.99-.04,68.98-.04,31.49,0,62.98,0,94.48,0,1,0,2,0,3,0,8.44,.06,13.53,4.13,13.44,10.77-.09,6.45-5.01,10.43-13.2,10.44-27.66,.04-55.32,.01-82.98,.01Z"/>
        <path class="cls-2" d="M147.2,413.66c-17.54,.03-31.73-14-31.89-31.57-.16-17.6,14.29-32.26,31.83-32.29,17.45-.02,32.22,14.85,32.02,32.23-.2,17.48-14.46,31.59-31.95,31.63Zm-.03-42.31c-5.71,0-10.52,4.7-10.59,10.35-.07,5.51,4.79,10.55,10.34,10.72,5.79,.17,10.78-4.82,10.72-10.72-.06-5.8-4.66-10.35-10.47-10.35Z"/>
        <path class="cls-2" d="M424.43,477.72c26.97,0,53.94,0,80.91,0,9.86,0,15.01,3.67,15.07,10.69,.07,7.01-5.16,10.82-14.94,10.82-53.94,0-107.88,0-161.83,0-9.86,0-15.03-3.68-15.07-10.68-.05-7.03,5.17-10.82,14.94-10.83,26.97,0,53.94,0,80.91,0Z"/>
        <path class="cls-2" d="M424.25,541.73c-26.66,0-53.32,0-79.98,0-1.33,0-2.67,.04-4-.02-6.96-.28-11.62-4.44-11.7-10.44-.08-6.19,4.73-10.71,11.94-10.74,22.66-.09,45.32-.04,67.98-.04,31.83,0,63.65,0,95.48,0,1,0,2,0,3,0,8.45,.05,13.53,4.13,13.45,10.77-.08,6.45-5.01,10.43-13.19,10.45-27.66,.04-55.32,.01-82.98,.01Z"/>
        <path class="cls-2" d="M146.94,541.66c-17.54-.11-31.62-14.28-31.63-31.83,0-17.63,14.7-32.31,32.09-32.01,17.47,.3,31.67,14.6,31.75,31.98,.08,17.51-14.54,31.98-32.21,31.86Zm.4-42.3c-5.72-.08-10.56,4.5-10.75,10.17-.19,5.69,4.95,10.94,10.66,10.89,5.64-.05,10.38-4.86,10.4-10.55,.03-5.81-4.5-10.42-10.31-10.51Z"/>
        <path d="M157.63,253.63c.09,5.72-4.47,10.56-10.15,10.78-5.67,.22-10.94-4.91-10.91-10.63,.03-5.63,4.84-10.4,10.52-10.43,5.82-.03,10.45,4.48,10.54,10.28Z"/>
        <path d="M147.17,371.36c5.81,0,10.41,4.55,10.47,10.35,.06,5.9-4.93,10.89-10.72,10.72-5.55-.16-10.41-5.21-10.34-10.72,.07-5.65,4.88-10.36,10.59-10.35Z"/>
        <path d="M147.34,499.37c5.81,.08,10.34,4.7,10.31,10.51-.03,5.69-4.76,10.5-10.4,10.55-5.71,.06-10.85-5.2-10.66-10.89,.19-5.67,5.03-10.26,10.75-10.17Z"/>
      </g>
    </g>
  </g>
</svg>