<?xml version="1.0" encoding="UTF-8"?>
<svg id="Capa_2" data-name="Capa 2" xmlns="http://www.w3.org/2000/svg" viewBox="0 0 657 657">
  <defs>
    <style>
      .cls-1 {
        fill: none;
      }

      .cls-2 {
        fill: #fff;
      }
    </style>
  </defs>
  <g id="Capa_1-2" data-name="Capa 1">
    <g>
      <g id="_4CR7y4" data-name="4CR7y4">
        <g>
          <path d="M288.44,121.18c45.28,.6,91.08,4.23,135.3,19.06,18.22,6.11,35.5,14.09,50.45,26.52,14.4,11.97,21.49,26.82,19.45,45.86-.55,5.07-3.96,7.17-7.17,9.51-16.3,11.87-34.93,18.7-54.15,23.93-59.25,16.13-119.68,19.76-180.73,16.62-40.26-2.07-79.98-7.45-118.58-19.53-13.59-4.26-26.77-9.54-38.86-17.21-12.64-8.02-16.19-18.49-11.58-32.93,4.4-13.78,13.72-23.56,25.23-31.55,24.89-17.27,53.27-25.53,82.49-31.45,32.07-6.5,64.56-8.51,98.16-8.82Z"/>
          <path d="M81.57,436.65c47.03,28.26,98.13,36.38,150.15,40.62,47.51,3.87,95,3.1,142.31-3.07,35.09-4.58,69.52-11.88,101.58-27.68,5.67-2.8,11.11-6.07,17.89-9.81,0,3.45,0,6.22,0,8.99,0,16.67-.48,33.35,.15,49.99,.54,14.42-5.16,25.69-15.17,35.18-15.86,15.03-35.41,23.53-55.82,30.08-53.21,17.08-107.99,20.91-163.41,18.31-36.34-1.71-72.14-6.91-106.85-18.27-18.01-5.9-35.31-13.34-50.3-25.24-13.57-10.77-21.61-23.94-20.72-42.26,.9-18.56,.2-37.19,.2-56.82Z"/>
          <path d="M493.49,237.49c0,25.05-.1,49.32,.08,73.58,.04,4.86-3.23,6.94-6.26,9.23-14.69,11.13-31.64,17.62-49.06,22.84-53.39,16-108.21,20.24-163.62,19.29-49.96-.86-99.26-6.29-146.94-22.26-14.23-4.77-27.86-10.8-40.04-19.8-4.22-3.12-6.33-6.63-6.23-12.27,.36-21.33,.26-42.67,.07-64-.05-5.51,.12-7.78,6.38-4.02,26.93,16.14,56.92,23.76,87.39,29.12,76.54,13.48,153.18,13.41,229.62-1,29.95-5.65,59.24-13.67,85.58-29.88,.56-.35,1.32-.37,3.03-.82Z"/>
          <path d="M287.84,462.55c-50.94-.16-101.33-4.67-150.4-19.29-17.44-5.2-34.27-11.83-49.23-22.57-4.74-3.4-6.92-7.28-6.8-13.46,.41-21.57,.16-43.16,.17-64.74,0-2.98-.65-6.54,4.46-3.51,30.69,18.18,64.62,26.7,99.37,32.25,54.5,8.7,109.3,9.59,164.24,4.86,38.49-3.31,76.27-9.82,112.46-23.88,8.93-3.47,17.64-7.42,25.73-12.54,4.02-2.55,5.78-2.85,5.73,2.93-.2,22.56-.22,45.12,.03,67.68,.05,4.77-2.61,7.14-5.72,9.51-15.08,11.47-32.44,18.17-50.36,23.5-48.83,14.55-98.98,19.07-149.68,19.27Z"/>
          <path d="M198.29,113.26c13.57-9.71,28.72-15.63,44.42-20.19,52.17-15.13,105.53-17.85,159.43-15.15,35.63,1.78,70.69,6.69,104.6,18.13,17.49,5.9,34.11,13.6,48.67,25.25,15.03,12.03,22.84,27.11,20.59,46.77-.3,2.63-.97,4.66-2.97,6.35-17.13,14.46-37.9,21.11-58.84,27.35-3.47,1.04-4.26-1.21-4.14-4.09,.97-23.12-12.67-37.83-29.64-50.15-25.31-18.37-54.54-27.52-84.71-33.69-54-11.05-108.49-11.65-163.13-5.91-11.48,1.21-22.85,3.52-34.27,5.32Z"/>
          <path d="M575.92,192.01c0,18.91,0,36.46,0,54.01,0,4.41-.58,8.91,.12,13.2,1.59,9.76-3.17,15.34-10.9,20.16-15.54,9.71-32.47,15.86-49.87,21.08-3.55,1.06-5.34,.88-5.31-3.66,.16-24.49,.1-48.97,.06-73.46,0-2.66,.39-4.7,3.48-5.53,21.51-5.76,42.41-13.1,62.41-25.81Z"/>
          <path d="M575.91,292.25c0,25.68-.06,49.94,.07,74.2,.02,3.36-1.4,5.54-3.8,7.46-17.22,13.83-37.66,20.61-58.4,26.75-3.28,.97-3.75-.77-3.75-3.4,.03-24.52,.07-49.04-.03-73.56-.02-4.13,3.02-4.54,5.69-5.52,16.09-5.89,32.59-10.78,47.74-19.03,3.82-2.08,7.6-4.21,12.48-6.91Z"/>
          <path d="M513.1,513.02c8.93-16.85,4.36-34.76,5.3-52.11,.33-6.1,1.03-12.43-.13-18.32-3.66-18.69,4.45-28.54,21.79-34.27,11.95-3.95,23.01-10.57,34.71-16.12,1.7,2.6,1.11,5.06,1.11,7.35,.05,17.62-.34,35.26,.14,52.87,.36,13.23-4.79,23.77-13.78,32.75-13.64,13.62-30.65,21.56-49.15,27.85Z"/>
        </g>
      </g>
      <circle class="cls-2" cx="453.16" cy="517.64" r="15.46"/>
      <circle class="cls-2" cx="453.16" cy="407.53" r="15.46"/>
      <circle class="cls-2" cx="453.16" cy="310.2" r="15.46"/>
    </g>
  </g>
  <g id="Capa_2-2" data-name="Capa 2">
    <rect class="cls-1" width="657" height="657"/>
  </g>
</svg>