<svg xmlns="http://www.w3.org/2000/svg" viewBox="0 0 32.41 38.88"><defs><style>.cls-1{fill:#fff;}</style></defs><g id="Capa_2" data-name="Capa 2"><g id="Capa_1-2" data-name="Capa 1"><g id="_4Xsech.tif" data-name="4Xsech.tif"><path class="cls-1" d="M0,33V30.68l.15-1.5A17,17,0,0,1,2,22.76a7.21,7.21,0,0,1,5.49-3.91,3.21,3.21,0,0,1,2.55.53,9.88,9.88,0,0,0,1.37.87,16.56,16.56,0,0,0,2.55,1.14,8.31,8.31,0,0,0,6.94-1c.65-.38,1.25-.83,1.9-1.19a2.5,2.5,0,0,1,1.16-.39,7,7,0,0,1,3.57.87A8,8,0,0,1,31,23.93a20.18,20.18,0,0,1,1.3,9.45,5.73,5.73,0,0,1-2.5,4.25,7.31,7.31,0,0,1-4.4,1.25H7.28a10.92,10.92,0,0,1-1.62-.08,6.09,6.09,0,0,1-5.3-4.26A13.92,13.92,0,0,1,0,33Z"/><path class="cls-1" d="M16.85,0c.51.1,1,.19,1.51.31a9.4,9.4,0,0,1,6.85,7.6,9.05,9.05,0,0,1-1.34,6.46,9.16,9.16,0,0,1-7.31,4.33A9.37,9.37,0,0,1,14,.19L15.1,0Z"/></g></g></g></svg>