<?xml version="1.0" encoding="UTF-8"?>
<svg id="Capa_2" data-name="Capa 2" xmlns="http://www.w3.org/2000/svg" viewBox="0 0 300 300">
  <defs>
    <style>
      .cls-1 {
        fill: none;
      }

      .cls-2 {
        fill: #fad224;
      }

      .cls-3 {
        fill: #07485e;
      }

      .cls-4 {
        fill: #0b799c;
      }
    </style>
  </defs>
  <g id="Capa_1-2" data-name="Capa 1">
    <g>
      <g>
        <rect class="cls-1" width="300" height="300"/>
        <g id="MtJTkV.tif">
          <g>
            <path class="cls-4" d="M.98,197.73V60.92c2.74-6.82,7.51-10.17,15.13-10.16,72.85,.11,145.7,.06,218.54,.07,9.95,0,14.94,5.07,14.94,15.09,0,42.39,0,84.78,0,127.18,0,10.18-4.98,15.17-15.15,15.17-26.77,0-53.54,0-80.32,0-1.1,0-2.21,0-3.54,0,1.7,15.77,6,29.81,18.28,40.68H81.72c12.39-10.98,16.65-25.05,18.26-40.68-1.62,0-2.77,0-3.92,0-26.68,0-53.35,0-80.03-.02-1.73,0-3.52-.04-5.19-.44-5.36-1.28-8.17-5.18-9.88-10.1Zm16.86-6.26H232.8V67.61H17.84v123.86Z"/>
            <path class="cls-3" d="M299.02,243.14c-2.24,4.66-5.96,6.13-11.06,6.09-26.19-.17-52.39-.08-78.58-.08-8.19,0-10.94-2.79-10.94-11.05,0-8.03,0-16.06,0-24.33,1.21-.07,2.15-.16,3.08-.17,8.54-.01,17.08,.04,25.61-.04,1.84-.02,2.9,.43,3.88,2.16,4.52,8.04,13.28,11.84,22.28,9.91,8.41-1.81,14.72-8.98,15.84-18,1.03-8.28-3.85-16.82-11.91-20.47-1.77-.8-2.42-1.7-2.36-3.67,.16-5.02,.05-10.05,.05-15.36h28.22v-12.94h-28.01v-17.2h28.06v-12.85h-28.02v-17.28h28v-13.04h-28.08v-22.9c2.27,0,4.38,0,6.49,0,9.02,0,18.05,.16,27.07-.06,5.12-.13,8.59,1.72,10.39,6.54V243.14Z"/>
          </g>
        </g>
      </g>
      <rect class="cls-2" x="17.76" y="67.87" width="215" height="124"/>
    </g>
  </g>
</svg>