<?xml version="1.0" encoding="UTF-8"?>
<svg id="Capa_2" data-name="Capa 2" xmlns="http://www.w3.org/2000/svg" viewBox="0 0 300 300">
  <defs>
    <style>
      .cls-1 {
        fill: none;
      }

      .cls-2 {
        fill: #fad224;
      }

      .cls-3 {
        fill: #03232e;
      }

      .cls-4 {
        fill: #b3d1d6;
      }

      .cls-5 {
        fill: #07485e;
      }

      .cls-6 {
        fill: #0b799c;
      }
    </style>
  </defs>
  <g id="Capa_1-2" data-name="Capa 1">
    <g>
      <rect class="cls-1" width="300" height="300"/>
      <g id="GUrXR0.tif">
        <g>
          <path class="cls-6" d="M15.06,82.53c0-21.76,.04-43.52-.06-65.28,0-2.02,.57-2.24,2.34-2.24,44.22,.05,88.44,.04,132.66,.04-.02,22.47-.04,44.94-.06,67.41-2.55,.03-5.09,.07-7.64,.07-36.81,.02-73.62,.04-110.43,.06-5.61-.02-11.21-.05-16.82-.07Zm67.23-25.81c2.2,0,4.39-.06,6.58,.02,1.29,.05,1.92-.25,1.89-1.72-.08-4.13-.07-8.25,0-12.38,.02-1.4-.49-1.79-1.84-1.77-4.48,.07-8.96,.05-13.43,0-1.09-.01-1.59,.27-1.57,1.45,.05,4.3,.04,8.6,0,12.91-.01,1.14,.39,1.54,1.53,1.5,2.28-.07,4.56-.02,6.85-.02Z"/>
          <path class="cls-6" d="M15.06,183.74V116.26c5.6-.02,11.2-.04,16.8-.06,32.96,.02,65.92,.03,98.88,.06,6.4,0,12.8,.05,19.19,.07,0,22.44,0,44.89,0,67.33-6.66,.02-13.32,.07-19.98,.07-32.7,.02-65.39,.04-98.09,.06-5.6-.02-11.2-.04-16.8-.06Zm67.24-25.83c2.2,0,4.39-.06,6.59,.02,1.31,.05,1.9-.28,1.87-1.73-.08-4.13-.05-8.26-.01-12.39,0-1.14-.2-1.78-1.57-1.75-4.57,.07-9.14,.05-13.7,0-1.1-.01-1.58,.28-1.56,1.46,.05,4.3,.05,8.61,0,12.91-.01,1.15,.41,1.52,1.54,1.49,2.28-.07,4.57-.02,6.85-.02Z"/>
          <path class="cls-6" d="M150.01,284.95c-44.28,0-88.56-.01-132.83,.05-1.81,0-2.17-.35-2.16-2.16,.08-21.79,.05-43.58,.05-65.37,5.61-.02,11.21-.05,16.82-.07,34.88,.02,69.75,.03,104.63,.06,4.48,0,8.96,.05,13.44,.07,.02,22.47,.04,44.94,.06,67.41Zm-68.29-25.84c2.65,0,4.84-.07,7.04,.03,1.42,.06,2.05-.3,2.01-1.87-.09-4.04-.09-8.08,0-12.12,.04-1.55-.54-1.95-1.99-1.89-2.37,.1-4.74-.04-7.11,.05-2.51,.09-5.86-1.11-7.3,.49-1.25,1.39-.43,4.68-.43,7.12,0,2.62-.88,6.12,.44,7.64,1.52,1.74,5.11,.29,7.33,.55Z"/>
          <path class="cls-5" d="M149.95,82.46c.02-22.47,.04-44.94,.06-67.41,44.28,0,88.56,.01,132.83-.05,1.81,0,2.17,.35,2.16,2.16-.08,21.79-.05,43.58-.05,65.37-5.6,.02-11.2,.03-16.79,.05-39-.01-78-.02-117.01-.03-.35,0-.7,.05-1.05,.07l-.15-.15Zm73.36-25.75c11.32,0,22.65-.05,33.97,.05,1.99,.02,2.55-.52,2.47-2.49-.16-3.77-.12-7.55-.01-11.32,.04-1.59-.39-2.15-2.05-2.09-3.51,.12-7.02,.04-10.53,.04-19.22,0-38.45,.03-57.67-.05-2.1,0-2.69,.57-2.6,2.63,.17,3.59,.16,7.2,0,10.79-.09,1.96,.46,2.51,2.46,2.49,11.32-.1,22.65-.05,33.97-.05Z"/>
          <path class="cls-5" d="M149.94,183.67c0-22.44,0-44.89,0-67.33,0,0,.15-.15,.15-.15,39.36,.01,78.72,.02,118.08,.04l16.78,.04v67.47c-5.59,.01-11.19,.03-16.78,.04-35.42-.01-70.83-.03-106.25-.04-3.94,0-7.89,.05-11.83,.07l-.15-.15Zm73.33-25.76c11.41,0,22.83,0,34.24,0,1.14,0,2.26,.25,2.22-1.61-.11-4.21-.08-8.43,0-12.64,.02-1.34-.56-1.58-1.73-1.58-23.09,.02-46.18,.03-69.27-.02-1.64,0-1.84,.69-1.81,2.04,.07,3.6,.15,7.21-.02,10.8-.11,2.3,.42,3.11,2.94,3.08,11.15-.16,22.3-.07,33.45-.07Z"/>
          <path class="cls-5" d="M150.01,284.95c-.02-22.47-.04-44.94-.06-67.41,0,0,.15-.15,.15-.15,.35,.03,.7,.07,1.05,.07,39,0,78-.02,117.01-.03,5.6,.02,11.2,.03,16.79,.05,0,21.79-.03,43.58,.05,65.37,0,1.81-.36,2.16-2.16,2.16-44.28-.06-88.56-.05-132.83-.05Zm73.01-25.85c11.5,0,23-.03,34.5,.04,1.69,0,2.32-.43,2.22-2.19-.14-2.54-.04-5.09-.04-7.64q0-6.03-5.94-6.03c-21.42,0-42.84,.03-64.25-.04-2.02,0-2.75,.45-2.63,2.58,.19,3.41,.19,6.85,0,10.27-.12,2.31,.44,3.11,2.96,3.08,11.06-.15,22.12-.07,33.18-.07Z"/>
          <path class="cls-5" d="M31.86,116.21c0-11.2,.01-22.41,.02-33.61,36.81-.02,73.62-.03,110.43-.05,2.55,0,5.09-.05,7.64-.07,0,0,.15,.15,.15,.15,0,11.19,0,22.38-.01,33.57,0,0-.15,.15-.15,.15-6.4-.02-12.8-.07-19.2-.07-32.96-.02-65.92-.04-98.88-.06Z"/>
          <path class="cls-2" d="M82.29,56.72c-2.28,0-4.57-.05-6.85,.02-1.14,.04-1.54-.36-1.53-1.5,.04-4.3,.05-8.6,0-12.91-.01-1.19,.48-1.47,1.57-1.45,4.48,.05,8.96,.06,13.43,0,1.35-.02,1.86,.38,1.84,1.77-.07,4.13-.07,8.25,0,12.38,.03,1.47-.6,1.77-1.89,1.72-2.19-.08-4.39-.02-6.58-.02Z"/>
          <path class="cls-5" d="M31.88,217.41c0-11.2-.01-22.41-.02-33.61,32.7-.02,65.39-.03,98.09-.06,6.66,0,13.32-.05,19.98-.07,0,0,.15,.15,.15,.15,0,11.19,0,22.38,.01,33.57,0,0-.15,.15-.15,.15-4.48-.03-8.96-.07-13.44-.07-34.88-.02-69.75-.04-104.63-.06Z"/>
          <path class="cls-2" d="M82.3,157.91c-2.28,0-4.57-.05-6.85,.02-1.13,.03-1.55-.33-1.54-1.49,.05-4.3,.05-8.61,0-12.91-.01-1.19,.46-1.47,1.56-1.46,4.57,.05,9.14,.06,13.7,0,1.37-.02,1.58,.62,1.57,1.75-.04,4.13-.06,8.26,.01,12.39,.03,1.45-.57,1.78-1.87,1.73-2.19-.08-4.39-.02-6.59-.02Z"/>
          <path class="cls-2" d="M81.72,259.11c-2.22-.26-5.81,1.19-7.33-.55-1.33-1.52-.44-5.02-.44-7.64,0-2.45-.82-5.73,.43-7.12,1.44-1.61,4.78-.4,7.3-.49,2.37-.09,4.74,.05,7.11-.05,1.45-.06,2.03,.34,1.99,1.89-.09,4.04-.09,8.08,0,12.12,.04,1.57-.59,1.93-2.01,1.87-2.19-.1-4.39-.03-7.04-.03Z"/>
          <path class="cls-3" d="M150.08,116.18c0-11.19,0-22.38,.01-33.57,.35-.03,.7-.07,1.05-.07,39,0,78,.02,117.01,.03,0,11.22,0,22.43,0,33.65-39.36-.01-78.72-.02-118.08-.04Z"/>
          <path class="cls-4" d="M223.31,56.72c-11.32,0-22.65-.05-33.97,.05-2,.02-2.55-.53-2.46-2.49,.16-3.59,.17-7.2,0-10.79-.1-2.06,.5-2.64,2.6-2.63,19.22,.08,38.45,.05,57.67,.05,3.51,0,7.03,.09,10.53-.04,1.66-.06,2.1,.51,2.05,2.09-.1,3.77-.14,7.55,.01,11.32,.08,1.96-.48,2.5-2.47,2.49-11.32-.1-22.65-.05-33.97-.05Z"/>
          <path class="cls-3" d="M150.1,217.38c0-11.19,0-22.38-.01-33.57,3.94-.03,7.89-.07,11.83-.07,35.42,0,70.83,.02,106.25,.04,0,11.22,0,22.43,0,33.65-39,.01-78,.02-117.01,.03-.35,0-.7-.05-1.05-.07Z"/>
          <path class="cls-4" d="M223.27,157.91c-11.15,0-22.3-.09-33.45,.07-2.53,.04-3.06-.78-2.94-3.08,.18-3.59,.09-7.2,.02-10.8-.03-1.35,.17-2.04,1.81-2.04,23.09,.05,46.18,.04,69.27,.02,1.17,0,1.75,.23,1.73,1.58-.07,4.21-.1,8.43,0,12.64,.05,1.86-1.08,1.61-2.22,1.61-11.41,0-22.83,0-34.24,0Z"/>
          <path class="cls-4" d="M223.01,259.1c-11.06,0-22.12-.09-33.18,.07-2.52,.03-3.08-.76-2.96-3.08,.18-3.41,.19-6.85,0-10.27-.12-2.13,.61-2.59,2.63-2.58,21.42,.07,42.84,.04,64.25,.04q5.94,0,5.94,6.03c0,2.55-.11,5.1,.04,7.64,.1,1.76-.53,2.2-2.22,2.19-11.5-.07-23-.04-34.5-.04Z"/>
        </g>
      </g>
    </g>
  </g>
</svg>