<?xml version="1.0" encoding="UTF-8"?>
<svg id="Capa_2" data-name="Capa 2" xmlns="http://www.w3.org/2000/svg" viewBox="0 0 301 300">
  <defs>
    <style>
      .cls-1 {
        fill: none;
      }

      .cls-2 {
        fill: #fad224;
      }

      .cls-3 {
        fill: #03232e;
      }

      .cls-4 {
        fill: #b3d1d6;
      }

      .cls-5 {
        fill: #07485e;
      }

      .cls-6 {
        fill: #0b799c;
      }
    </style>
  </defs>
  <g id="Capa_1-2" data-name="Capa 1">
    <g>
      <g>
        <g>
          <rect class="cls-3" x="19.9" y="162.66" width="20.26" height="31.11" transform="translate(-148.19 208.25) rotate(-90)"/>
          <rect class="cls-3" x="259.4" y="162.66" width="20.26" height="31.11" transform="translate(91.31 447.74) rotate(-90)"/>
          <path class="cls-6" d="M291.13,111.65H9.87c-5.45,0-9.87,4.42-9.87,9.87v43.93c0,5.45,4.42,9.87,9.87,9.87H291.13c5.45,0,9.87-4.42,9.87-9.87v-43.93c0-5.45-4.42-9.87-9.87-9.87Zm-138.82,15.19c3.8,0,6.87,1.46,6.87,3.26s-3.08,3.26-6.87,3.26-6.87-1.46-6.87-3.26,3.08-3.26,6.87-3.26Zm-20.98,0c3.8,0,6.87,1.46,6.87,3.26s-3.08,3.26-6.87,3.26-6.87-1.46-6.87-3.26,3.08-3.26,6.87-3.26Zm-42.69,0c3.8,0,6.87,1.46,6.87,3.26s-3.08,3.26-6.87,3.26-6.87-1.46-6.87-3.26,3.08-3.26,6.87-3.26Zm-45.58,0c3.8,0,6.87,1.46,6.87,3.26s-3.08,3.26-6.87,3.26-6.87-1.46-6.87-3.26,3.08-3.26,6.87-3.26Zm20.62,26.1c0,3.97-3.22,7.19-7.19,7.19h-16.74c-3.97,0-7.19-3.22-7.19-7.19v-13.07h31.11v13.07Zm-4.34-22.84c0-1.8,3.08-3.26,6.87-3.26s6.87,1.46,6.87,3.26-3.08,3.26-6.87,3.26-6.87-1.46-6.87-3.26Zm42.69,22.86c0,3.96-3.21,7.17-7.17,7.17h-16.78c-3.96,0-7.17-3.21-7.17-7.17v-13.09h31.11v13.09Zm1.45-22.86c0-1.8,3.08-3.26,6.87-3.26s6.87,1.46,6.87,3.26-3.08,3.26-6.87,3.26-6.87-1.46-6.87-3.26Zm36.18,22.86c0,3.96-3.21,7.17-7.17,7.17h-16.77c-3.96,0-7.17-3.21-7.17-7.17v-13.09h31.11v13.09Zm36.9-.04c0,3.98-3.23,7.21-7.21,7.21h-16.69c-3.98,0-7.21-3.23-7.21-7.21v-13.05h31.11v13.05Zm39.8,.02c0,3.97-3.22,7.2-7.2,7.2h-16.72c-3.97,0-7.2-3.22-7.2-7.2v-13.06h31.11v13.06Zm62.95,7.2h-20.26v-31.11h20.26v31.11Z"/>
        </g>
        <rect class="cls-1" x=".5" y="0" width="300" height="300"/>
      </g>
      <ellipse class="cls-5" cx="42.82" cy="129.92" rx="7.29" ry="3.76"/>
      <ellipse class="cls-5" cx="65.82" cy="129.92" rx="7.29" ry="3.76"/>
      <ellipse class="cls-5" cx="88.82" cy="129.92" rx="7.29" ry="3.76"/>
      <ellipse class="cls-5" cx="110.82" cy="129.92" rx="7.29" ry="3.76"/>
      <ellipse class="cls-5" cx="130.82" cy="129.92" rx="7.29" ry="3.76"/>
      <ellipse class="cls-5" cx="152.82" cy="129.92" rx="7.29" ry="3.76"/>
      <rect class="cls-4" x="258.52" y="128.68" width="21" height="32"/>
      <path class="cls-2" d="M32.52,139.68h32v15.1c0,3.25-2.64,5.9-5.9,5.9h-20.21c-3.25,0-5.9-2.64-5.9-5.9v-15.1h0Z"/>
      <path class="cls-2" d="M70.52,139.68h32v15.1c0,3.25-2.64,5.9-5.9,5.9h-20.21c-3.25,0-5.9-2.64-5.9-5.9v-15.1h0Z"/>
      <path class="cls-2" d="M107.52,139.68h32v15.1c0,3.25-2.64,5.9-5.9,5.9h-20.21c-3.25,0-5.9-2.64-5.9-5.9v-15.1h0Z"/>
      <path class="cls-2" d="M144.52,139.68h32v15.1c0,3.25-2.64,5.9-5.9,5.9h-20.21c-3.25,0-5.9-2.64-5.9-5.9v-15.1h0Z"/>
      <path class="cls-2" d="M185.52,139.68h32v15.1c0,3.25-2.64,5.9-5.9,5.9h-20.21c-3.25,0-5.9-2.64-5.9-5.9v-15.1h0Z"/>
    </g>
  </g>
</svg>